<svg width="24" height="24" viewBox="0 0 24 24" fill="none" xmlns="http://www.w3.org/2000/svg">
<path d="M18.9915 12.0016V9.02039H15.4895M15.4895 9.02039V6.32112C15.3121 3.22401 12.8235 2.09871 11.2061 2.00751C9.33199 1.90183 6.60223 3.30237 6.51217 6.30086L6.47098 9.02039M15.4895 9.02039H6.47098M10.9999 21.9893H3.00098V9.02039H6.47098" stroke="#686B6E" stroke-width="1.5"/>
<path d="M15.214 17.728L16.5064 19.0209L18.8225 16.67M20.9981 17.9986C20.9981 20.2076 19.2083 21.9983 17.0005 21.9983C14.7926 21.9983 13.0029 20.2076 13.0029 17.9986C13.0029 15.7897 14.7926 13.999 17.0005 13.999C19.2083 13.999 20.9981 15.7897 20.9981 17.9986Z" stroke="#686B6E" stroke-width="1.5"/>
</svg>
