<svg width="62" height="40" viewBox="0 0 62 40" fill="none" xmlns="http://www.w3.org/2000/svg">
<path d="M41.6814 31.5679L40.8146 33.4944H41.2183L41.4043 33.0572H42.3242L42.513 33.4944H42.9234L42.0505 31.5679H41.6814ZM42.1911 32.7439H41.5391L41.8637 31.9856L42.1911 32.7439Z" fill="black"/>
<path d="M44.7587 33.1595H43.7712V31.5679H43.3826V33.4944H44.7587V33.1595Z" fill="black"/>
<path d="M46.1265 33.5214C46.4419 33.5214 46.7132 33.4068 46.891 33.1988L46.9027 33.1851L46.6492 32.9436L46.6359 32.958C46.5747 33.0276 46.4992 33.0831 46.4145 33.1207C46.3298 33.1583 46.238 33.177 46.1453 33.1756C45.7657 33.1756 45.49 32.9046 45.49 32.5311C45.49 32.1576 45.7657 31.8863 46.1453 31.8863C46.2378 31.885 46.3294 31.9035 46.4141 31.9406C46.4988 31.9778 46.5745 32.0326 46.6362 32.1015L46.6492 32.1155L46.903 31.8761L46.891 31.8624C46.7132 31.6544 46.4426 31.5402 46.1293 31.5402C45.532 31.5402 45.0986 31.9564 45.0986 32.5321C45.0986 33.1078 45.531 33.5214 46.1265 33.5214Z" fill="black"/>
<path d="M48.3252 33.5212C48.9255 33.5212 49.3613 33.1046 49.3613 32.5293C49.3613 31.9539 48.9255 31.5373 48.3252 31.5373C47.7248 31.5373 47.2891 31.9536 47.2891 32.5293C47.2891 33.105 47.7248 33.5212 48.3252 33.5212ZM48.3252 31.8862C48.6987 31.8862 48.9696 32.1575 48.9696 32.531C48.9696 32.9045 48.6987 33.1754 48.3252 33.1754C47.9516 33.1754 47.6804 32.9045 47.6804 32.531C47.6804 32.1575 47.9516 31.8862 48.3252 31.8862Z" fill="black"/>
<path d="M51.2928 32.3475H50.3542V31.5679H49.9653V33.4944H50.3542V32.6851H51.2928V33.4944H51.6814V31.5679H51.2928V32.3475Z" fill="black"/>
<path d="M53.3217 31.5409C52.721 31.5409 52.2856 31.9572 52.2856 32.5328C52.2856 33.1085 52.721 33.5248 53.3217 33.5248C53.9223 33.5248 54.3578 33.1082 54.3578 32.5328C54.3578 31.9575 53.9206 31.5409 53.3217 31.5409ZM53.3217 33.1756C52.9482 33.1756 52.6769 32.9047 52.6769 32.5311C52.6769 32.1576 52.9482 31.8863 53.3217 31.8863C53.6952 31.8863 53.9661 32.1576 53.9661 32.5311C53.9661 32.9047 53.6952 33.1756 53.3217 33.1756Z" fill="black"/>
<path d="M56.3379 33.1595H55.3507V31.5679H54.9618V33.4944H56.3379V33.1595Z" fill="black"/>
<path d="M41.6106 34.8053H40.8146V36.7318H41.2032V36.1869H41.6106C42.1182 36.1869 42.4336 35.9221 42.4336 35.4959C42.4336 35.0697 42.1189 34.8053 41.6106 34.8053ZM41.2032 35.1398H41.5945C41.8873 35.1398 42.0423 35.263 42.0423 35.4959C42.0423 35.7289 41.8873 35.852 41.5945 35.852H41.2032V35.1398Z" fill="black"/>
<path d="M43.4046 36.1828H43.812C43.8326 36.1828 43.8541 36.1828 43.8753 36.1828L44.2605 36.7349H44.6843L44.2427 36.1038C44.4958 35.9968 44.6344 35.7826 44.6344 35.4991C44.6344 35.0729 44.3193 34.8084 43.8134 34.8084H43.0171V36.7349H43.406L43.4046 36.1828ZM43.4046 35.1413H43.7949C44.0877 35.1413 44.2427 35.2644 44.2427 35.4974C44.2427 35.7303 44.0836 35.8562 43.7949 35.8562H43.404L43.4046 35.1413Z" fill="black"/>
<path d="M46.6743 35.1374V34.8049H45.2575V36.7317H46.712V36.3996H45.6464V35.9169H46.558V35.5903H45.6464V35.1374H46.6743Z" fill="black"/>
<path d="M48.6912 34.8049L48.0697 36.233L47.4533 34.8049H47.0316L47.8737 36.7317H48.2438L49.0832 34.8049H48.6912Z" fill="black"/>
<path d="M50.9587 36.3996H49.8931V35.9169H50.8051V35.5903H49.8931V35.1374H50.921V34.8049H49.5042V36.7317H50.9587V36.3996Z" fill="black"/>
<path d="M51.967 35.4873L52.9802 36.7317H53.2969V34.8049H52.9111V36.0493L51.8976 34.8049H51.5808V36.7317H51.967V35.4873Z" fill="black"/>
<path d="M54.4197 36.7317H54.8083V35.1398H55.4343V34.8049H53.7938V35.1398H54.4197V36.7317Z" fill="black"/>
<path d="M56.3198 34.8053H55.9308V36.7318H56.3198V34.8053Z" fill="black"/>
<path d="M57.9625 34.7784C57.3622 34.7784 56.9264 35.1947 56.9264 35.7704C56.9264 36.3461 57.3622 36.7607 57.9625 36.7607C58.5628 36.7607 58.9986 36.3441 58.9986 35.7704C58.9986 35.1968 58.5632 34.7784 57.9625 34.7784ZM57.9625 36.4132C57.589 36.4132 57.3181 36.1422 57.3181 35.7687C57.3181 35.3952 57.589 35.1239 57.9625 35.1239C58.336 35.1239 58.6076 35.3962 58.6076 35.7687C58.6076 36.1412 58.336 36.4132 57.9625 36.4132Z" fill="black"/>
<path d="M60.9322 34.8049V36.0493L59.919 34.8049H59.6023V36.7317H59.9885V35.4873L61.0017 36.7317H61.3184V34.8049H60.9322Z" fill="black"/>
<path d="M40.8146 38.3774H41.4406V39.9694H41.8292V38.3774H42.4552V38.0429H40.8146V38.3774Z" fill="black"/>
<path d="M44.5701 38.7335C44.5701 38.3073 44.2547 38.0429 43.7471 38.0429H42.9511V39.9694H43.34V39.419H43.7471C43.768 39.419 43.7892 39.419 43.8107 39.419L44.1959 39.9711H44.62L44.1784 39.34C44.4312 39.2312 44.5701 39.0171 44.5701 38.7335ZM43.3387 38.3774H43.7296C44.0224 38.3774 44.1774 38.5006 44.1774 38.7335C44.1774 38.9665 44.0183 39.0924 43.7296 39.0924H43.34L43.3387 38.3774Z" fill="black"/>
<path d="M45.7822 38.0429L44.9155 39.9694H45.3188L45.5048 39.5322H46.424L46.6131 39.9694H47.0219L46.152 38.0429H45.7822ZM46.2919 39.2189H45.6399L45.9646 38.4606L46.2919 39.2189Z" fill="black"/>
<path d="M47.8726 38.0429H47.4837V39.9694H47.8726V38.0429Z" fill="black"/>
<path d="M49.944 39.287L48.9308 38.0429H48.6141V39.9694H48.9999V38.725L50.0134 39.9694H50.3302V38.0429H49.944V39.287Z" fill="black"/>
<path d="M51.4584 38.0429H51.0695V39.9694H51.4584V38.0429Z" fill="black"/>
<path d="M53.5292 39.287L52.516 38.0429H52.1992V39.9694H52.5851V38.725L53.5986 39.9694H53.9153V38.0429H53.5292V39.287Z" fill="black"/>
<path d="M55.5771 38.3613C55.6716 38.3594 55.7655 38.3772 55.8528 38.4134C55.9401 38.4496 56.019 38.5035 56.0844 38.5717L56.0977 38.585L56.3454 38.3432L56.3334 38.3299C56.1528 38.1246 55.8857 38.0158 55.561 38.0158C54.9576 38.0158 54.5195 38.4321 54.5195 39.0078C54.5195 39.5835 54.9553 39.9998 55.5556 39.9998C55.8409 39.9998 56.1148 39.9105 56.3081 39.7552L56.3153 39.7497V38.9688H55.9455V39.565C55.8322 39.6262 55.7049 39.6569 55.5761 39.654C55.1916 39.654 54.9125 39.3831 54.9125 39.0095C54.9128 38.6264 55.1865 38.3613 55.5771 38.3613Z" fill="black"/>
<path d="M20.4407 12.9154L24.0857 9.26939C24.5065 8.84874 24.793 8.31277 24.9091 7.72926C25.0253 7.14575 24.9658 6.54091 24.7381 5.99122C24.5105 5.44153 24.125 4.97169 23.6303 4.64111C23.1357 4.31054 22.5541 4.13407 21.9591 4.13403C21.789 4.13406 21.6192 4.14847 21.4515 4.17713C20.8373 4.28041 20.2708 4.57362 19.8319 5.01552L19.6499 5.19852L19.4658 5.01552C19.1872 4.73542 18.8557 4.51331 18.4907 4.36201C18.1257 4.21072 17.7344 4.13323 17.3393 4.13403C17.1689 4.13404 16.9989 4.14846 16.831 4.17713C16.2871 4.26989 15.7793 4.51046 15.3631 4.8725C14.9469 5.23455 14.6382 5.70412 14.471 6.22982C14.3038 6.75552 14.2844 7.3171 14.415 7.85308C14.5455 8.38907 14.821 8.87881 15.2113 9.2687L16.975 11.0334L18.5484 9.46299L16.7827 7.6983C16.7093 7.62553 16.6511 7.53888 16.6115 7.44338C16.572 7.34789 16.5518 7.24548 16.5522 7.14211C16.5521 7.06884 16.5624 6.99593 16.583 6.92559C16.6204 6.79377 16.6916 6.67401 16.7895 6.57817C16.8875 6.48233 17.0088 6.41373 17.1414 6.37917C17.274 6.34461 17.4133 6.34529 17.5456 6.38113C17.6778 6.41697 17.7984 6.48674 17.8954 6.58353L19.6499 8.33967L21.4033 6.58524C21.551 6.43763 21.7513 6.35475 21.9601 6.35481C22.1689 6.35488 22.3691 6.43789 22.5167 6.58558C22.6643 6.73327 22.7472 6.93355 22.7471 7.14235C22.747 7.35116 22.664 7.55138 22.5163 7.69899L18.8631 11.3512L17.0324 13.2462L14.4201 10.7433C13.2728 9.70586 12.8049 8.82266 12.6924 7.48349C12.6756 7.26696 12.666 7.033 12.666 6.78945V2.57765H16.5655V0.356995H10.4426V6.78774C10.4426 9.19755 11.1367 10.7642 12.9168 12.378L17.0878 16.3767L20.4407 12.9154Z" fill="black"/>
<path d="M22.6854 0.356995V2.57783H26.6342V6.7017C26.6342 8.472 26.1894 9.46987 24.8789 10.6559L18.3416 17.3105V21.2103H15.8998V23.4312H23.0494V21.2103H20.5631V18.2273L20.5727 18.2177L26.3882 12.2856C28.164 10.6727 28.8547 9.1076 28.8547 6.7017V0.356995H22.6854Z" fill="black"/>
<path d="M19.6503 3.46302C20.5896 3.46302 21.351 2.6878 21.351 1.73151C21.351 0.775224 20.5896 0 19.6503 0C18.711 0 17.9496 0.775224 17.9496 1.73151C17.9496 2.6878 18.711 3.46302 19.6503 3.46302Z" fill="black"/>
<path d="M21.8585 27.3604H16.101V39.9954H19.3847V36.5854H21.8589C25.3079 36.5854 27.4512 34.8218 27.4512 31.982C27.4509 29.1312 25.3075 27.3604 21.8585 27.3604ZM21.6358 34.085H19.3844V29.8612H21.6358C23.2216 29.8612 24.1308 30.6329 24.1308 31.982C24.1308 33.3184 23.2216 34.085 21.6358 34.085Z" fill="black"/>
<path d="M28.0992 27.3608V29.8794H32.1058V39.9955H35.3882V29.8794H39.3739V27.3608H28.0992Z" fill="black"/>
<path d="M5.57696 27.3608L0 39.9955H3.31457L7.23288 30.2269L10.1411 37.4752H4.93286L6.04763 39.9955H14.5413L8.94626 27.3608H5.57696Z" fill="black"/>
</svg>
