<svg width="123" height="44" viewBox="0 0 123 44" fill="none" xmlns="http://www.w3.org/2000/svg">
<rect width="123" height="44" rx="22" fill="url(#paint0_linear_2096_9693)"/>
<circle cx="31" cy="22" r="7" fill="#1BC929" stroke="white" stroke-width="2"/>
<path d="M55.3345 18.6378C55.2777 18.0649 55.0339 17.6198 54.603 17.3026C54.1721 16.9853 53.5874 16.8267 52.8487 16.8267C52.3468 16.8267 51.9231 16.8977 51.5774 17.0398C51.2318 17.1771 50.9666 17.3688 50.782 17.6151C50.602 17.8613 50.5121 18.1406 50.5121 18.4531C50.5026 18.7135 50.5571 18.9408 50.6754 19.1349C50.7985 19.3291 50.9666 19.4972 51.1797 19.6392C51.3928 19.7765 51.639 19.8973 51.9183 20.0014C52.1977 20.1009 52.496 20.1861 52.8132 20.2571L54.12 20.5696C54.7545 20.7116 55.3369 20.901 55.8672 21.1378C56.3975 21.3745 56.8568 21.6657 57.245 22.0114C57.6333 22.357 57.9339 22.7642 58.147 23.233C58.3648 23.7017 58.4761 24.2391 58.4808 24.8452C58.4761 25.7353 58.2488 26.5071 57.799 27.1605C57.3539 27.8092 56.71 28.3134 55.8672 28.6733C55.0291 29.0284 54.0182 29.206 52.8345 29.206C51.6603 29.206 50.6375 29.026 49.7663 28.6662C48.8999 28.3063 48.2228 27.7737 47.7351 27.0682C47.2521 26.358 46.9988 25.4796 46.9751 24.4332H49.951C49.9841 24.9209 50.1238 25.3281 50.37 25.6548C50.621 25.9768 50.9548 26.2206 51.3714 26.3864C51.7929 26.5473 52.2687 26.6278 52.799 26.6278C53.3198 26.6278 53.772 26.5521 54.1555 26.4006C54.5438 26.2491 54.8445 26.0384 55.0575 25.7685C55.2706 25.4986 55.3771 25.1884 55.3771 24.8381C55.3771 24.5114 55.2801 24.2367 55.0859 24.0142C54.8965 23.7917 54.6172 23.6023 54.2479 23.446C53.8833 23.2898 53.4358 23.1477 52.9055 23.0199L51.3217 22.6222C50.0954 22.3239 49.1271 21.8575 48.4169 21.223C47.7067 20.5885 47.3539 19.7339 47.3587 18.6591C47.3539 17.7784 47.5883 17.009 48.0618 16.3509C48.54 15.6927 49.1958 15.179 50.0291 14.8097C50.8625 14.4403 51.8094 14.2557 52.87 14.2557C53.9496 14.2557 54.8918 14.4403 55.6967 14.8097C56.5064 15.179 57.1361 15.6927 57.5859 16.3509C58.0357 17.009 58.2678 17.7713 58.282 18.6378H55.3345ZM63.234 25.8608L63.2411 22.2315H63.6815L67.1758 18.0909H70.6488L65.9542 23.5739H65.2369L63.234 25.8608ZM60.4925 29V14.4545H63.5181V29H60.4925ZM67.3107 29L64.1005 24.2486L66.1175 22.1108L70.8548 29H67.3107ZM74.1768 33.0909C73.7933 33.0909 73.4335 33.0601 73.0973 32.9986C72.7659 32.9418 72.4912 32.8684 72.2734 32.7784L72.9553 30.5199C73.3104 30.6288 73.63 30.688 73.9141 30.6974C74.2029 30.7069 74.4515 30.6406 74.6598 30.4986C74.8729 30.3565 75.0457 30.1151 75.1783 29.7741L75.3558 29.3125L71.4425 18.0909H74.6243L76.8828 26.1023H76.9964L79.2763 18.0909H82.4794L78.2393 30.179C78.0357 30.7661 77.7588 31.2775 77.4084 31.7131C77.0627 32.1534 76.6248 32.492 76.0945 32.7287C75.5642 32.9702 74.925 33.0909 74.1768 33.0909Z" fill="white"/>
<defs>
<linearGradient id="paint0_linear_2096_9693" x1="-3.59611e-08" y1="-7.21311" x2="128.22" y2="9.34308" gradientUnits="userSpaceOnUse">
<stop stop-color="#28AAE1"/>
<stop offset="0.510234" stop-color="#0364B3"/>
<stop offset="1" stop-color="#012B4D"/>
</linearGradient>
</defs>
</svg>
